<svg xmlns="http://www.w3.org/2000/svg" width="139.402" height="139.4" viewBox="0 0 36.884 36.883"><path style="fill:#fff;fill-opacity:.97486;stroke:none;stroke-width:2.365;stroke-linecap:round;stroke-linejoin:round;stroke-miterlimit:4;stroke-dasharray:none;stroke-dashoffset:1.51937" d="M75.595 10.285a18.442 18.442 0 0 0-18.442 18.44 18.442 18.442 0 0 0 18.442 18.443 18.442 18.442 0 0 0 18.442-18.442 18.442 18.442 0 0 0-18.442-18.441Zm4.098 9.015a1.183 1.183 0 0 1 .822.345 1.183 1.183 0 0 1 0 1.672L73.132 28.7l7.433 7.432a1.183 1.183 0 0 1 0 1.673 1.183 1.183 0 0 1-1.673 0l-8.268-8.27a1.183 1.183 0 0 1 0-1.671l8.219-8.219a1.183 1.183 0 0 1 .85-.345z" transform="translate(-57.153 -10.285)"/></svg>