<svg xmlns="http://www.w3.org/2000/svg" aria-label="Options" class="_ab6-" color="#262626" fill="#262626" height="22" width="22"><circle cx="11" cy="11" fill="none" r="8.635" stroke="currentColor" stroke-linecap="round" stroke-linejoin="round" stroke-width="2"/><path d="M13.232 2.656a1.269 1.269 0 0 1-.796-.66L11.93 1h-1.86l-.505.996a1.269 1.269 0 0 1-.796.66m-.001 16.688a1.269 1.269 0 0 1 .796.66l.505.996h1.862l.505-.996a1.269 1.269 0 0 1 .796-.66M2.656 8.768a1.269 1.269 0 0 1-.66.796L1 10.07v1.862l.996.505a1.269 1.269 0 0 1 .66.796m16.688-.001a1.269 1.269 0 0 1 .66-.796L21 11.93v-1.86l-.996-.505a1.269 1.269 0 0 1-.66-.796M6.678 3.522a1.269 1.269 0 0 1-1.03.096l-1.06-.348L3.27 4.587l.348 1.062a1.269 1.269 0 0 1-.096 1.03m11.8 11.799a1.269 1.269 0 0 1 1.03-.096l1.06.348 1.318-1.317-.348-1.062a1.269 1.269 0 0 1 .096-1.03m-14.956.001a1.269 1.269 0 0 1 .096 1.03l-.348 1.06 1.317 1.318 1.062-.348a1.269 1.269 0 0 1 1.03.096m11.799-11.8a1.269 1.269 0 0 1-.096-1.03l.348-1.06-1.317-1.318-1.062.348a1.269 1.269 0 0 1-1.03-.096" fill="none" stroke="currentColor" stroke-linejoin="round" stroke-width="2"/></svg>