<svg xmlns="http://www.w3.org/2000/svg" width="139.402" height="139.4" viewBox="0 0 36.884 36.883"><path style="fill:#fff;fill-opacity:.97486;stroke:none;stroke-width:8.93858;stroke-linecap:round;stroke-linejoin:round;stroke-miterlimit:4;stroke-dasharray:none;stroke-dashoffset:1.51937" d="M335.701 481.744a69.7 69.7 0 0 0-69.701 69.7 69.7 69.7 0 0 0 69.701 69.7 69.7 69.7 0 0 0 69.701-69.7 69.7 69.7 0 0 0-69.7-69.7zm-15.574 34.074a4.47 4.47 0 0 1 3.107 1.307l31.256 31.256a4.47 4.47 0 0 1 0 6.318l-31.062 31.063a4.47 4.47 0 0 1-6.32 0 4.47 4.47 0 0 1 0-6.319l27.896-27.904-28.088-28.088a4.47 4.47 0 0 1 0-6.326 4.47 4.47 0 0 1 3.211-1.307z" transform="matrix(.26458 0 0 .26458 -70.38 -127.461)"/></svg>