<svg xmlns="http://www.w3.org/2000/svg" class="_ab6-" color="#262626" fill="#262626" height="11.003" viewBox="0 0 22 22.006" width="11"><path d="M9.201 2.8 11 1l1.799 1.8a1.59 1.59 0 0 0 1.124.465h5.259A1.818 1.818 0 0 1 21 5.083v14.104a1.818 1.818 0 0 1-1.818 1.818H2.818A1.818 1.818 0 0 1 1 19.187V5.083a1.818 1.818 0 0 1 1.818-1.818h5.26A1.59 1.59 0 0 0 9.201 2.8z" fill="none" stroke="currentColor" stroke-linecap="round" stroke-linejoin="round" stroke-width="2"/><path d="M17.598 21.005v-.602a3.949 3.949 0 0 0-3.948-3.949H8.495a3.949 3.949 0 0 0-3.949 3.949v.603" fill="none" stroke="currentColor" stroke-linecap="round" stroke-linejoin="round" stroke-width="2"/><circle cx="11.072" cy="10.078" fill="none" r="3.556" stroke="currentColor" stroke-linecap="round" stroke-linejoin="round" stroke-width="2"/></svg>